<?xml version="1.0" encoding="UTF-8"?>
<!DOCTYPE svg PUBLIC "-//W3C//DTD SVG 1.1//EN" "http://www.w3.org/Graphics/SVG/1.1/DTD/svg11.dtd">
<!-- Creator: CorelDRAW X6 -->
<svg xmlns="http://www.w3.org/2000/svg" xml:space="preserve" width="24.5278in" height="34.625in" version="1.1" style="shape-rendering:geometricPrecision; text-rendering:geometricPrecision; image-rendering:optimizeQuality; fill-rule:evenodd; clip-rule:evenodd"
viewBox="0 0 24528 34625"
 xmlns:xlink="http://www.w3.org/1999/xlink">
 <defs>
  <style type="text/css">
   <![CDATA[
    .fil3 {fill:#282828;fill-rule:nonzero}
    .fil0 {fill:#4E63AC;fill-rule:nonzero}
    .fil1 {fill:#506DB2;fill-rule:nonzero}
    .fil2 {fill:#EAEAEA;fill-rule:nonzero}
    .fil4 {fill:#FEFEFE;fill-rule:nonzero}
   ]]>
  </style>
 </defs>
 <g id="Layer_x0020_1">
  <metadata id="CorelCorpID_0Corel-Layer"/>
  <polygon class="fil0" points="12254,34625 2233,31843 0,6797 24537,6797 24537,6798 22302,31839 12254,34625 "/>
  <polygon class="fil1" points="20388,30245 22298,8845 12269,8845 12269,32496 20388,30245 "/>
  <path class="fil2" d="M12269 26112l-13 3 -3421 -924 -219 -2450 -3084 0 430 4823 6292 1747 14 -4 0 -3196zm-7703 -14195l279 3072 7423 0 0 -3072 -7703 0 0 0zm553 6217l275 3072 6874 0 0 -3072 -7149 0z"/>
  <path class="fil3" d="M18424 -9l0 1353 -2165 0 0 270 2165 0 0 3112 -3721 0 0 -1421 2165 0 0 -271 -2165 0 0 -3044 3720 0zm-4465 0l-3721 0 0 3044 2165 0 0 271 -2165 0 0 1421 3720 0 0 -3112 -2165 0 0 -270 2165 0 0 -1353zm-4465 0l-3720 0 0 4667 3721 0 0 -1556 -2165 0 0 -1556 2165 0 0 -1556z"/>
  <polygon class="fil4" points="19398,18134 19953,11917 12258,11917 12258,14989 16587,14989 16307,18134 12258,18134 12258,21206 16041,21206 15684,25190 12258,26115 12258,29310 18555,27565 18602,27046 19324,18959 19398,18134 "/>
 </g>
</svg>
