<?xml version="1.0" encoding="UTF-8" standalone="no"?>
<svg
   xmlns:dc="http://purl.org/dc/elements/1.1/"
   xmlns:cc="http://creativecommons.org/ns#"
   xmlns:rdf="http://www.w3.org/1999/02/22-rdf-syntax-ns#"
   xmlns:svg="http://www.w3.org/2000/svg"
   xmlns="http://www.w3.org/2000/svg"
   viewBox="0 0 428.67999 486.66666"
   height="486.66666"
   width="428.67999"
   xml:space="preserve"
   id="svg2"
   version="1.1"><metadata
     id="metadata8"><rdf:RDF><cc:Work
         rdf:about=""><dc:format>image/svg+xml</dc:format><dc:type
           rdf:resource="http://purl.org/dc/dcmitype/StillImage" /></cc:Work></rdf:RDF></metadata><defs
     id="defs6"><clipPath
       id="clipPath32"
       clipPathUnits="userSpaceOnUse"><path
         id="path30"
         d="M 499.023,3300.68 H 1611.13 V 1076.46 H 499.023 Z" /></clipPath></defs><g
     transform="matrix(1.3333333,0,0,-1.3333333,0,486.66667)"
     id="g10"><g
       transform="scale(0.1)"
       id="g12"><path
         id="path14"
         style="fill:#e1d30c;fill-opacity:1;fill-rule:nonzero;stroke:none"
         d="M 292.285,370.699 0,3650 H 3215.14 L 2922.85,370.699 1604,0" /><path
         id="path16"
         style="fill:#f1e10e;fill-opacity:1;fill-rule:nonzero;stroke:none"
         d="M 1611.13,3386.23 H 2922.85 L 2673.34,577.441 1611.13,285.16 v 3101.07" /><path
         id="path18"
         style="fill:#100f0d;fill-opacity:1;fill-rule:nonzero;stroke:none"
         d="m 1708.76,670.531 103.11,62.399 c 19.9,-35.27 37.99,-65.11 81.4,-65.11 41.6,0 67.83,16.282 67.83,79.578 v 430.522 h 126.62 V 745.609 c 0,-131.14 -76.87,-190.839 -189.03,-190.839 -101.29,0 -160.08,52.46 -189.93,115.769" /><path
         id="path20"
         style="fill:#100f0d;fill-opacity:1;fill-rule:nonzero;stroke:none"
         d="m 2156.49,684.102 103.1,59.687 c 27.14,-44.32 62.41,-76.879 124.82,-76.879 52.46,0 85.92,26.231 85.92,62.41 0,43.41 -34.37,58.789 -92.26,84.102 L 2346.43,827 c -91.36,38.879 -151.96,87.719 -151.96,190.83 0,94.96 72.36,167.32 185.42,167.32 80.49,0 138.37,-28.04 179.97,-101.3 l -98.58,-63.31 c -21.71,38.89 -45.22,54.27 -81.39,54.27 -37.09,0 -60.6,-23.52 -60.6,-54.27 0,-37.981 23.51,-53.36 77.78,-76.88 l 31.65,-13.558 c 107.63,-46.133 168.23,-93.161 168.23,-198.973 0,-113.969 -89.54,-176.367 -209.83,-176.367 -117.58,0 -193.55,56.07 -230.63,129.34" /><path
         id="path22"
         style="fill:#3f4238;fill-opacity:1;fill-rule:nonzero;stroke:none"
         d="m 1611.13,1261.82 53.47,-92.61 802.57,463.38 c 33.09,19.1 53.47,54.4 53.47,92.61 v 926.75 c 0,38.21 -20.38,73.51 -53.47,92.61 l -802.57,463.38 c -33.08,19.1 -73.85,19.1 -106.94,0 L 755.094,2744.56 c -33.086,-19.1 -53.465,-54.4 -53.465,-92.61 V 1725.2 c 0,-38.21 20.379,-73.51 53.465,-92.61 l 802.566,-463.38 c 33.09,-19.1 73.86,-19.1 106.94,0 l -53.47,92.61 53.47,92.6 -749.108,432.51 v 803.29 l 695.638,401.64 695.64,-401.64 v -803.29 l -749.11,-432.51 53.47,-92.6 53.47,92.6 -53.47,-92.6" /><path
         id="path24"
         style="fill:#ffffff;fill-opacity:1;fill-rule:nonzero;stroke:none"
         d="m 1611.13,1261.82 53.47,-92.61 802.57,463.38 c 33.09,19.1 53.47,54.4 53.47,92.61 v 926.75 c 0,38.21 -20.38,73.51 -53.47,92.61 l -802.57,463.38 c -33.08,19.1 -73.85,19.1 -106.94,0 L 755.094,2744.56 c -33.086,-19.1 -53.465,-54.4 -53.465,-92.61 V 1725.2 c 0,-38.21 20.379,-73.51 53.465,-92.61 l 802.566,-463.38 c 33.09,-19.1 73.86,-19.1 106.94,0 l -53.47,92.61 53.47,92.6 -749.108,432.51 v 803.29 l 695.638,401.64 695.64,-401.64 v -803.29 l -749.11,-432.51 53.47,-92.6 53.47,92.6 -53.47,-92.6" /><g
         id="g26"><g
           clip-path="url(#clipPath32)"
           id="g28"><path
             id="path34"
             style="fill:#eeeded;fill-opacity:1;fill-rule:nonzero;stroke:none"
             d="m 1611.13,1261.82 53.47,-92.61 802.57,463.38 c 33.09,19.1 53.47,54.4 53.47,92.61 v 926.75 c 0,38.21 -20.38,73.51 -53.47,92.61 l -802.57,463.38 c -33.08,19.1 -73.85,19.1 -106.94,0 L 755.094,2744.56 c -33.086,-19.1 -53.465,-54.4 -53.465,-92.61 V 1725.2 c 0,-38.21 20.379,-73.51 53.465,-92.61 l 802.566,-463.38 c 33.09,-19.1 73.86,-19.1 106.94,0 l -53.47,92.61 53.47,92.6 -749.108,432.51 v 803.29 l 695.638,401.64 695.64,-401.64 v -803.29 l -749.11,-432.51 53.47,-92.6 53.47,92.6 -53.47,-92.6" /></g></g></g></g></svg>