<?xml version="1.0" encoding="UTF-8" standalone="no"?>
<svg
   xmlns:dc="http://purl.org/dc/elements/1.1/"
   xmlns:cc="http://creativecommons.org/ns#"
   xmlns:rdf="http://www.w3.org/1999/02/22-rdf-syntax-ns#"
   xmlns:svg="http://www.w3.org/2000/svg"
   xmlns="http://www.w3.org/2000/svg"
   viewBox="0 0 2666.6667 2666.6667"
   height="2666.6667"
   width="2666.6667"
   xml:space="preserve"
   id="svg2"
   version="1.1"><metadata
     id="metadata8"><rdf:RDF><cc:Work
         rdf:about=""><dc:format>image/svg+xml</dc:format><dc:type
           rdf:resource="http://purl.org/dc/dcmitype/StillImage" /></cc:Work></rdf:RDF></metadata><defs
     id="defs6" /><g
     transform="matrix(1.3333333,0,0,-1.3333333,0,2666.6667)"
     id="g10"><g
       transform="scale(0.1)"
       id="g12"><g
         transform="scale(1.22699)"
         id="g14"><path
           id="path16"
           style="fill:#ffffff;fill-opacity:1;fill-rule:nonzero;stroke:none"
           d="M 16300,0 H 0 V 16300 H 16300 V 0" /></g><g
         transform="scale(1.06363)"
         id="g18"><path
           id="path20"
           style="fill:#002c36;fill-opacity:1;fill-rule:nonzero;stroke:none"
           d="m 16300,6941.54 c 0,0 -2163.4,2114.09 -7178.25,1597.93 3466.25,-393.37 3564.55,-688.4 3564.55,-688.4 0,0 -442.5,-24.54 -688.4,-221.22 540.9,49.17 3564.6,-147.52 4302.1,-688.31" /></g><g
         transform="scale(1.16548)"
         id="g22"><path
           id="path24"
           style="fill:#002c36;fill-opacity:1;fill-rule:nonzero;stroke:none"
           d="m 8290.89,7927.69 c 0,0 3701.71,437.5 6023.71,-1076.81 908.6,-673.02 1127.3,-925.45 790.8,-2019.16 1093.7,992.72 1194.6,5014.15 -2910.9,5905.88 -185.1,-790.77 -790.8,-1194.59 -1682.6,-773.94 0,0 673.1,-790.82 117.8,-942.25 0,0 774,-572.05 -2338.81,-1093.72" /></g><path
         id="path26"
         style="fill:#002c36;fill-opacity:1;fill-rule:nonzero;stroke:none"
         d="m 14016.4,7984.6 c 0,0 -1000.1,98 -1666.9,-980.5 78.5,647.1 313.8,784.4 313.8,784.4 0,0 -1686.5,-78.5 -2333.6,-862.9 568.7,1039.4 2215.9,1313.9 2215.9,1313.9 0,0 -1451.1,-98 -1980.6,-313.8 1451.1,647.2 1863,608 1863,608 0,0 -4255.48,431.4 -6353.78,-3196.5 1274.67,1549.2 2961.16,1725.7 2961.16,1725.7 0,0 -1764.93,-882.5 -2157.14,-2098.3 902.08,1098.2 3412.16,470.6 4431.96,1353.1 -725.6,-1294.3 -1294.3,-1431.6 -1294.3,-1431.6 0,0 1961,137.3 2431.7,1078.6 -98.1,-666.7 -470.7,-1157 -470.7,-1157 0,0 1098.2,313.8 1000.2,1215.8 -98.1,902.1 -58.9,1568.9 1039.3,1961.1" /><path
         id="path28"
         style="fill:#002c36;fill-opacity:1;fill-rule:nonzero;stroke:none"
         d="m 10976.8,11730.2 c -78.4,-666.8 -941.3,-1098.2 -1666.88,-647.2 -725.58,451.1 -333.37,1098.2 -333.37,1098.2 0,0 -431.43,294.1 -1510,98 941.3,333.4 1686.49,176.5 2686.65,-254.9 1000.1,-431.4 1137.4,215.7 1137.4,215.7 0,0 39.2,-333.4 -313.8,-509.8 z m -4157.39,647.1 c 2215.97,1294.3 3647.49,-333.4 3647.49,-333.4 -1902.17,1255.1 -3647.49,333.4 -3647.49,333.4 z m 8099.09,78.4 c 0,0 -1078.6,2431.7 -4373.1,3000.4 -3294.56,568.7 -7079.36,-1176.6 -8275.58,-3274.9 0,0 431.43,686.4 1627.66,784.4 -1235.46,-804 -2176.75,-2372.8 -2255.19,-4333.9 98.05,804 1784.54,2078.7 1784.54,2078.7 0,0 -2784.674,-2176.7 -745.19,-6275.3 -137.28,882.5 1568.82,3490.6 4373.1,3451.4 -1490.39,-98 -3137.66,-1411.9 -3490.64,-3431.8 804.02,1863 2392.46,1921.8 2941.55,2470.9 -372.6,-725.6 -882.47,-1353.1 -882.47,-1353.1 0,0 2255.19,2706.2 5255.62,3039.6 0,0 -1529.65,137.3 -2588.61,-470.6 1215.84,804 1686.48,804 1686.48,804 0,0 -804.02,254.9 -1784.54,-215.7 1313.9,941.3 1843.37,705.9 2843.47,1058.9 -705.9,0 -1274.64,117.7 -1274.64,117.7 0,0 2372.84,-19.6 2490.54,392.2 0,0 -568.7,-98.1 -1215.9,117.7 902.1,0 2235.6,156.8 745.2,1411.9 666.8,-78.4 2000.3,-431.4 1392.4,647.1 411.8,-254.9 568.7,-411.8 568.7,-411.8 0,0 -137.3,823.7 -647.2,1176.6 706,-313.7 960.9,-745.2 960.9,-745.2 l -235.3,588.4 c 0,0 451,-451.1 1098.2,-627.6" /></g></g></svg>