<?xml version="1.0" standalone="no"?>
<!DOCTYPE svg PUBLIC "-//W3C//DTD SVG 20010904//EN"
 "http://www.w3.org/TR/2001/REC-SVG-20010904/DTD/svg10.dtd">
<svg version="1.0" xmlns="http://www.w3.org/2000/svg"
 width="221.000000pt" height="66.000000pt" viewBox="0 0 221.000000 66.000000"
 preserveAspectRatio="xMidYMid meet">
<metadata>
Created by potrace 1.15, written by Peter Selinger 2001-2017
</metadata>
<g transform="translate(0.000000,66.000000) scale(0.100000,-0.100000)"
fill="#000000" stroke="none">
<path d="M325 604 c-141 -39 -181 -71 -276 -219 -14 -22 -19 -48 -19 -100 0
-60 5 -81 34 -140 53 -108 50 -105 91 -65 l35 34 0 -37 c0 -36 1 -37 23 -26
12 6 32 21 45 32 l22 20 1 -24 c0 -13 4 -33 8 -43 7 -18 11 -16 49 19 29 25
40 31 36 19 -4 -13 3 -9 21 11 l26 30 -5 -35 -6 -35 33 38 c36 41 46 40 48 -7
l2 -31 10 38 c6 20 15 37 20 37 5 0 7 -17 3 -37 -6 -37 -5 -37 23 16 15 30 30
49 32 42 3 -8 10 -3 18 12 11 21 9 33 -17 98 l-29 74 25 3 c14 2 28 -2 32 -8
11 -18 30 -3 46 36 31 73 10 134 -53 160 -18 8 -38 25 -43 39 -12 33 -78 75
-115 74 -16 0 -70 -12 -120 -25z m174 -10 c31 -26 44 -71 18 -61 -7 3 -18 -3
-25 -13 -10 -16 -8 -17 26 -13 20 3 53 1 72 -4 32 -8 36 -13 47 -64 10 -50 11
-51 14 -19 2 30 3 31 6 9 2 -15 -3 -44 -12 -65 l-16 -39 -13 31 c-18 41 -89
69 -152 60 -24 -3 -64 -9 -89 -12 -32 -5 -45 -3 -45 5 0 7 -5 9 -10 6 -6 -4
-7 -11 -4 -17 5 -7 29 -8 73 -3 102 12 137 9 171 -15 17 -12 29 -25 26 -28 -6
-6 -79 14 -108 29 -29 15 -40 11 -29 -9 8 -15 4 -20 -22 -32 -18 -8 -39 -13
-48 -12 -20 3 -110 -92 -137 -145 -12 -22 -18 -49 -15 -61 5 -20 6 -20 31 9
17 21 27 27 32 18 10 -15 26 -5 33 20 4 15 0 19 -15 16 -17 -4 -19 0 -13 23 3
15 11 32 17 37 8 7 9 5 5 -7 -10 -27 9 -21 29 9 19 30 32 16 14 -16 -18 -35
-2 -23 30 21 34 47 40 42 9 -8 -11 -19 -17 -34 -12 -34 4 1 26 30 48 65 22 36
43 65 48 65 4 0 3 -9 -3 -19 -16 -32 -11 -38 11 -12 11 13 22 21 26 18 9 -10
-15 -58 -47 -96 -26 -30 -28 -31 -23 -10 3 13 -11 -3 -31 -36 -38 -61 -83
-115 -97 -115 -4 0 -4 14 1 31 8 26 7 29 -6 18 -8 -6 -17 -9 -20 -6 -4 3 -23
-5 -43 -19 l-36 -24 -3 32 c-5 61 -11 66 -38 33 l-24 -30 0 35 c0 26 -3 31
-10 20 -14 -22 -12 -1 5 56 l14 49 -19 -24 c-28 -33 -25 -5 5 48 30 52 27 66
-4 19 -21 -31 -22 -32 -20 -8 4 75 -17 60 -26 -18 -9 -87 -23 -108 -20 -32 3
92 13 120 54 164 21 23 29 36 19 33 -27 -10 -22 3 15 36 21 19 26 27 13 22
-19 -6 -19 -5 -2 14 25 28 78 51 176 77 109 29 112 29 149 -2z"/>
<path d="M260 519 l-55 -29 38 5 c30 5 37 3 31 -6 -5 -9 -2 -10 9 -6 11 4 14
2 11 -7 -3 -7 -22 -18 -42 -24 -21 -6 -46 -19 -57 -27 -20 -16 -20 -16 1 -6
12 6 39 9 60 7 68 -5 162 11 197 34 29 20 24 21 -18 4 -8 -3 -15 -1 -15 4 0 6
8 13 18 15 12 3 11 5 -6 6 -14 1 -20 5 -17 12 4 6 13 8 21 5 8 -3 14 -1 14 4
0 6 -11 10 -24 10 -13 0 -43 7 -66 15 -23 8 -43 15 -44 14 0 -1 -26 -14 -56
-30z"/>
<path d="M883 441 c-76 -19 -117 -69 -117 -142 0 -56 22 -93 75 -124 45 -27
140 -27 189 0 19 11 38 18 43 17 12 -3 8 12 -9 36 l-15 22 -26 -20 c-78 -61
-193 -21 -193 67 0 21 7 48 15 60 33 47 136 54 181 11 l22 -19 16 23 c16 22
15 23 -28 45 -52 26 -108 35 -153 24z"/>
<path d="M1265 440 l-130 -5 0 -138 0 -137 122 0 c67 0 128 -3 137 -6 13 -5
16 1 16 31 0 31 -2 35 -14 26 -9 -8 -46 -11 -103 -9 l-88 3 -3 38 -3 39 70 -4
71 -3 0 30 0 30 -70 -3 -70 -4 0 32 0 31 100 -3 100 -3 0 33 c0 17 -1 31 -2
30 -2 -1 -61 -5 -133 -8z"/>
<path d="M1455 301 l0 -141 103 0 c118 0 164 15 187 61 20 38 19 124 -1 158
-28 47 -51 55 -174 59 l-115 4 0 -141z m224 63 c29 -36 28 -95 -2 -129 -18
-22 -34 -27 -85 -32 l-62 -6 0 97 0 96 64 0 c58 0 67 -3 85 -26z"/>
<path d="M1910 421 c0 -11 -26 -74 -58 -140 l-59 -121 40 0 c22 0 38 3 34 6
-3 3 -1 19 5 35 10 28 12 29 77 29 63 0 69 -2 80 -26 6 -14 9 -30 6 -35 -4 -5
17 -9 47 -9 29 0 48 4 42 8 -18 11 -135 252 -129 262 4 6 -13 10 -39 10 -39 0
-46 -3 -46 -19z"/>
</g>
</svg>
